<?xml version="1.0" encoding="utf-8"?>
<!-- Generator: Adobe Illustrator 16.0.0, SVG Export Plug-In . SVG Version: 6.00 Build 0)  -->
<!DOCTYPE svg PUBLIC "-//W3C//DTD SVG 1.1//EN" "http://www.w3.org/Graphics/SVG/1.1/DTD/svg11.dtd">
<svg version="1.1" id="Layer_1" xmlns="http://www.w3.org/2000/svg" xmlns:xlink="http://www.w3.org/1999/xlink" x="0px" y="0px"
	 width="523.59px" height="128.25px" viewBox="0 0 523.59 128.25" enable-background="new 0 0 523.59 128.25" xml:space="preserve">
<path fill="#F6F6F6" d="M223.9,46.171l0.001-0.005l-3.352,11.88L223.9,46.171L223.9,46.171z"/>
<path fill="#F6F6F6" d="M241.14,71.962l-3.694-0.022L241.14,71.962z"/>
<path fill="#F6F6F6" d="M240.19,89.703h0.004l-22.131,0.08L240.19,89.703L240.19,89.703z"/>
<path fill="#F6F6F6" d="M244.83,71.984l-3.695-0.022L244.83,71.984z"/>
<path fill="#F6F6F6" d="M242.13,88.195l3.855-14.702l-3.855,14.705V88.195L242.13,88.195z"/>
<path fill="#F6F6F6" d="M323.61,20.49l-7.182,33.76L323.61,20.49z"/>
<path fill="#F6F6F6" d="M305.15,20.49l-5.452,25.22l5.452-25.222V20.49z"/>
<path fill="#F6F6F6" d="M322.38,18.971h-15.355c-0.853,0-1.698,0.684-1.88,1.517l-5.452,25.222l-5.452,25.223
	c-0.18,0.832-1.025,1.514-1.877,1.514h-9.317h-1.552c-10.753,0-9.51-7.438-7.307-17.627c0.021-0.103,0.044-0.203,0.065-0.308
	l0.241-1.284c0.016-0.083,0.032-0.166,0.046-0.242l0.491-2.615l0.525-2.803c0.16-0.845,0.402-2.08,0.562-2.856l2.478-12.109
	l2.48-12.109c0.172-0.835-0.388-1.521-1.24-1.521h-15.762c-0.852,0-1.695,0.686-1.87,1.519l-3.389,16.079l-3.389,16.077
	c-0.003,0.007-0.004,0.017-0.005,0.024l-0.315,1.494c-3.904,17.822-2.869,34.817,18.347,35.349c0.347,0.01,0.615,0.013,0.615,0.013
	h33.302c0.853,0,1.696-0.684,1.874-1.519l7.182-33.757l7.182-33.76C323.785,19.655,323.232,18.972,322.38,18.971L322.38,18.971z"/>
<path fill="#F6F6F6" d="M383.64,72.621c0.854,0,1.411,0.684,1.24,1.519l-1.491,7.288"/>
<path fill="#F6F6F6" d="M381.9,88.719l1.49-7.292l-1.492,7.295C381.898,88.719,381.899,88.719,381.9,88.719L381.9,88.719z"/>
<path fill="#F6F6F6" d="M380.03,90.253c0.002,0,0.005-0.002,0.007-0.002c-4.52,0.036-18.1,0.14-28.307,0.14
	C364.153,90.391,380.029,90.254,380.03,90.253L380.03,90.253z"/>
<path fill="#F6F6F6" d="M342.57,63.234c-0.013-0.798,0.896-2.173,1.749-2.173l-1.918-0.032
	C341.537,69.721,342.57,63.234,342.57,63.234L342.57,63.234z"/>
<path fill="#F6F6F6" d="M353.13,90.387c-0.098,0-0.197,0-0.295,0.002C352.933,90.387,353.032,90.387,353.13,90.387z"/>
<path fill="#F6F6F6" d="M383.64,72.621c0.854,0,1.411,0.684,1.24,1.519l-1.491,7.288l-0.243,1.188"/>
<path fill="#F6F6F6" d="M360.4,90.37h-0.062H360.4z"/>
<path fill="#F6F6F6" d="M356.63,90.382h-0.219H356.63z"/>
<path fill="#F6F6F6" d="M355.48,90.385c-0.122,0-0.242,0-0.361,0.002C355.238,90.385,355.357,90.385,355.48,90.385z"/>
<path fill="#F6F6F6" d="M354.31,90.387h-0.317H354.31z"/>
<path fill="#F6F6F6" d="M356.41,90.382c-0.312,0-0.623,0.002-0.931,0.002C355.787,90.384,356.099,90.382,356.41,90.382z"/>
<path fill="#F6F6F6" d="M360.34,90.37c-1.242,0.005-2.482,0.01-3.705,0.013C357.857,90.381,359.099,90.375,360.34,90.37z"/>
<path fill="#F6F6F6" d="M380.04,90.25L380.04,90.25c-3.311,0.027-11.489,0.088-19.646,0.119
	C368.547,90.34,376.727,90.277,380.04,90.25z"/>
<path fill="#F6F6F6" d="M381.9,88.723l1.248-6.106l-1.25,6.11C381.898,88.725,381.899,88.725,381.9,88.723L381.9,88.723z"/>
<path fill="#F6F6F6" d="M355.12,90.387h-0.811H355.12z"/>
<path fill="#F6F6F6" d="M352.83,90.389h-1.097H352.83z"/>
<path fill="#F6F6F6" d="M353.99,90.387h-0.864H353.99z"/>
<path fill="#F6F6F6" d="M129.36,63.417l2.385-10.574l-2.727,12.087l-2.617,12.312l2.294-10.793
	C128.872,65.614,129.172,64.249,129.36,63.417L129.36,63.417z"/>
<path fill="#F6F6F6" d="M157.91,18.793h-16.864c-0.853,0-1.704,0.681-1.895,1.511l-1.599,7.058l-1.599,7.061
	c-0.188,0.83,0.355,1.511,1.208,1.511h16.995c0.852,0,1.699-0.681,1.882-1.514l1.545-7.058l1.545-7.053v-0.002
	C159.312,19.475,158.764,18.793,157.91,18.793L157.91,18.793z"/>
<path fill="#F6F6F6" d="M154.24,42.272V42.27l-4.946,22.882L154.24,42.272z"/>
<path fill="#F6F6F6" d="M105.25,118.09c0,0,8.501,0.109,13.905,0.109c-4.105,0-10.885-0.075-13.912-0.111
	C105.246,118.088,105.248,118.09,105.25,118.09L105.25,118.09z"/>
<path fill="#F6F6F6" d="M134.13,42.269l-2.388,10.574L134.13,42.269z"/>
<path fill="#F6F6F6" d="M153.02,40.756h-16.997c-0.852,0-1.704,0.681-1.892,1.514l-2.388,10.574l-2.385,10.574
	c-0.188,0.832-0.488,2.197-0.665,3.032l-2.294,10.793l-2.292,10.793c-0.178,0.832-0.544,2.178-0.818,2.985
	c0,0-3.175,9.448-8.513,9.341c-0.227-0.005-0.448-0.007-0.667-0.013c-2.586-0.049-4.619-0.085-4.619-0.085h-0.004
	c-0.851-0.013-1.707,0.651-1.905,1.479l-1.763,7.41l-1.76,7.406c-0.198,0.828,0.337,1.512,1.184,1.526
	c3.028,0.036,9.807,0.112,13.912,0.112c13.334,0,20.363-7.388,24.869-28.647l5.273-24.398l4.946-22.883
	C154.422,41.438,153.871,40.756,153.02,40.756L153.02,40.756z"/>
<path fill="#F6F6F6" d="M394.47,89.525c-0.852,0-1.404-0.684-1.226-1.52l12.786-59.89"/>
<path fill="#F6F6F6" d="M412.24,88.004l5.171-25.562L412.24,88.004z"/>
<path fill="#F6F6F6" d="M393.43,88.766c-0.104-0.417-0.043-1.439,0.139-2.275l6.067-28.428l-6.393,29.944
	c-0.18,0.835,0.374,1.519,1.226,1.519h1.553C395.168,89.525,393.532,89.184,393.43,88.766L393.43,88.766z"/>
<path fill="#F6F6F6" d="M411.23,89.184c-0.465,0.188-1.543,0.342-2.396,0.342h1.553c0.852,0,1.689-0.684,1.857-1.521l0.308-1.519
	C412.383,87.32,411.695,88.995,411.23,89.184L411.23,89.184z"/>
<path fill="#F6F6F6" d="M414.83,75.223l2.282-11.282c-0.001,0.007-0.002,0.017-0.004,0.022L414.83,75.223L414.83,75.223z"/>
<path fill="#F6F6F6" d="M465.28,32.128l0.704,2.91c0.194,0.833-0.344,1.509-1.195,1.511"/>
<path fill="#F6F6F6" d="M412.55,86.486l2.276-11.262L412.55,86.486z"/>
<path fill="#F6F6F6" d="M464.58,29.147l0.697,2.981L464.58,29.147z"/>
<path fill="#F6F6F6" d="M417.11,63.942c0.169-0.835,0.45-2.188,0.627-3.015l2.438-11.421l-2.761,12.937L417.11,63.942L417.11,63.942
	z"/>
<path fill="#F6F6F6" d="M406.24,27.135c-0.17,0.806-0.387,1.824-0.531,2.498l-6.068,28.43l6.393-29.946L406.24,27.135L406.24,27.135
	z"/>
<path fill="#F6F6F6" d="M465.98,35.038l-0.705-2.91l-0.697-2.981l-0.353-1.509c-1.38-5.363-5.433-8.459-14.232-8.459l-13.7-0.015
	l-12.617-0.015h-1.083h-13.114c-0.852,0-1.695,0.681-1.871,1.516h-0.001l-0.627,2.966l-0.741,3.503l-0.206,0.981l-6.393,29.946
	l-6.068,28.428c-0.181,0.836-0.242,1.858-0.138,2.275c0.103,0.418,1.738,0.76,2.591,0.76h12.809c0.853,0,1.933-0.154,2.396-0.342
	c0.466-0.188,1.152-1.863,1.322-2.698l2.276-11.262l2.279-11.26c0.001-0.005,0.002-0.015,0.004-0.022l0.304-1.499l2.762-12.937
	l2.438-11.426c0.181-0.83,1.021-1.509,1.872-1.511l40.3-0.02C465.637,36.547,466.175,35.87,465.98,35.038L465.98,35.038z"/>
<path fill="#F6F6F6" d="M517.86,8.725c-0.854,0.006-2.249,0.011-3.103,0.011h-12.898c-0.854,0-1.946,0.576-2.427,1.28
	l-28.523,41.787c-0.481,0.706-1.031,0.601-1.221-0.229l-2.099-9.207c-0.188-0.833-1.043-1.511-1.896-1.511h-18.337
	c-0.854,0-1.358,0.669-1.125,1.489l8.216,28.784c0.234,0.82,0.252,2.168,0.041,2.994l-3.582,13.931
	c-0.212,0.827,0.312,1.504,1.166,1.504h18.123c0.852,0,1.724-0.677,1.935-1.504l3.583-13.931c0.211-0.826,0.805-2.061,1.318-2.742
	l46.306-61.459c0.515-0.681,0.236-1.235-0.616-1.229L517.86,8.725L517.86,8.725z"/>
<path fill="#F6F6F6" d="M372.18,44.774l-0.001-0.017c-0.107,0.925-0.96,1.604-1.812,1.604h-23.248c-0.804,0-1.212-0.547-1.094-1.221
	c0.007-0.02,0.01-0.037,0.022-0.054c0,0-0.009,0.002-0.015,0.007c0.005-0.027,0.005-0.052,0.012-0.078c0,0,0.044-0.164,0.106-0.396
	c2.221-5.903,6.743-9.778,15.243-9.778C370.963,34.842,372.83,39.518,372.18,44.774L372.18,44.774z M365.359,17.94
	c-29.841,0-36.911,18.113-40.879,36.394c-3.967,18.633-3.625,36.055,27.254,36.055h1.096c0.098-0.002,0.197-0.002,0.295-0.002h0.865
	h0.316h0.811c0.12-0.002,0.24-0.002,0.361-0.002c0.309,0,0.619-0.002,0.931-0.002h0.219c1.222-0.002,2.462-0.008,3.704-0.012h0.062
	c8.156-0.032,16.334-0.094,19.647-0.12c0.847-0.013,1.676-0.696,1.851-1.523l1.25-6.11l0.242-1.189l1.492-7.287
	c0.171-0.836-0.387-1.52-1.24-1.52h-27.761c-11.041,0-14.32-2.934-13.112-11.56h44.377l-0.004,0.005c0.012,0,0.021-0.005,0.03-0.005
	c0.706-0.013,1.357-0.498,1.616-1.145c0.049-0.125,0.091-0.254,0.107-0.388l-0.005,0.005c6.59-24.854,4.7-41.592-23.528-41.592
	L365.359,17.94z"/>
<path fill="#F6F6F6" d="M224.32,44.679l-0.42,1.487c0,0.005-0.001,0.005-0.001,0.005l-3.351,11.875l-3.35,11.873
	c-0.232,0.82-1.118,1.491-1.973,1.491H197.49c-13.453,0-16.729-10.521-13.453-26.042c3.275-15.874,9.697-25.742,22.938-26.741
	C225.069,17.263,228.689,29.989,224.32,44.679L224.32,44.679z M236.483,70.497c0,0,8.362-20.303,10.261-32.031
	C249.334,22.767,241.474,0,211.114,0c-30.188,0-43.295,21.737-48.297,45.367c-5.001,23.801,1.552,44.675,31.567,44.504l23.679-0.088
	l22.131-0.08c0.852-0.008,1.724-0.684,1.941-1.507l3.855-14.705c0.215-0.825-0.306-1.504-1.158-1.509l-3.695-0.021l-3.694-0.022
	c-0.725-0.005-1.14-0.474-1.052-1.097c0.016-0.111,0.041-0.227,0.09-0.347L236.483,70.497z"/>
<path fill="#F6F6F6" d="M385.92,56.908c0,0.562-0.455,1.018-1.018,1.018c-0.562,0-1.019-0.457-1.019-1.018s0.456-1.016,1.019-1.016
	S385.92,56.347,385.92,56.908z"/>
<path fill="#F6F6F6" d="M5.979,30.509c-8.335,11.98-7.297,27.566-0.93,40.295c0.151,0.306,0.31,0.605,0.466,0.906
	c0.1,0.19,0.194,0.386,0.298,0.573c0.059,0.112,0.125,0.223,0.186,0.33c0.108,0.202,0.22,0.396,0.332,0.593
	c0.198,0.35,0.4,0.696,0.608,1.043c0.115,0.19,0.228,0.381,0.347,0.571c0.229,0.371,0.465,0.737,0.706,1.104
	c0.1,0.156,0.198,0.312,0.3,0.464c0.332,0.495,0.671,0.988,1.021,1.475c0.009,0.013,0.019,0.026,0.029,0.039
	c0.055,0.078,0.116,0.153,0.172,0.231c0.303,0.418,0.615,0.83,0.931,1.238c0.116,0.148,0.233,0.298,0.351,0.446
	c0.282,0.354,0.569,0.706,0.86,1.058c0.109,0.132,0.219,0.264,0.329,0.393c0.392,0.462,0.791,0.921,1.199,1.369
	c0.007,0.008,0.017,0.018,0.024,0.025c0.017,0.02,0.032,0.031,0.046,0.051c0.398,0.435,0.806,0.859,1.218,1.284
	c0.128,0.132,0.259,0.264,0.391,0.394c0.32,0.322,0.645,0.639,0.973,0.954c0.133,0.127,0.265,0.257,0.398,0.378
	c0.438,0.413,0.881,0.818,1.333,1.214c0.008,0.007,0.014,0.013,0.021,0.017c0.077,0.068,0.156,0.133,0.232,0.198
	c0.398,0.345,0.803,0.687,1.211,1.022c0.166,0.135,0.334,0.267,0.501,0.4c0.333,0.267,0.67,0.53,1.01,0.789
	c0.179,0.137,0.359,0.273,0.54,0.41c0.375,0.275,0.752,0.547,1.133,0.813c0.139,0.1,0.273,0.197,0.412,0.292
	c0.039,0.027,0.075,0.055,0.114,0.081c0.361,0.249,0.731,0.488,1.1,0.728c0.159,0.105,0.316,0.215,0.476,0.317
	c0.566,0.359,1.141,0.713,1.722,1.055c0.157,0.091,0.317,0.179,0.476,0.269c0.427,0.247,0.857,0.488,1.292,0.726
	c0.236,0.127,0.478,0.246,0.716,0.368c0.308,0.161,0.612,0.325,0.925,0.481c0.071,0.034,0.145,0.068,0.214,0.103
	c0.126,0.061,0.253,0.119,0.378,0.183c0.484,0.232,0.973,0.459,1.466,0.679c0.105,0.047,0.206,0.093,0.31,0.14
	c0.565,0.246,1.135,0.483,1.71,0.71c0.138,0.057,0.277,0.11,0.417,0.164c0.532,0.205,1.072,0.407,1.614,0.598
	c0.068,0.024,0.134,0.047,0.203,0.07c0.594,0.208,1.195,0.4,1.799,0.589c0.144,0.042,0.289,0.088,0.435,0.13
	c0.615,0.186,1.223,0.407,1.858,0.524c40.31,7.351,52.019-24.224,52.019-24.224c-9.834,12.812-27.29,16.19-43.829,12.429
	c-0.626-0.142-1.234-0.337-1.846-0.518c-0.155-0.046-0.308-0.093-0.46-0.14c-0.597-0.183-1.189-0.375-1.777-0.578
	c-0.081-0.029-0.162-0.059-0.244-0.088c-0.527-0.186-1.048-0.381-1.567-0.581c-0.146-0.059-0.293-0.114-0.439-0.173
	c-0.569-0.225-1.134-0.459-1.692-0.703c-0.115-0.049-0.225-0.101-0.338-0.149c-0.48-0.218-0.955-0.437-1.427-0.664
	c-0.137-0.065-0.273-0.13-0.413-0.198c-0.371-0.181-0.738-0.373-1.104-0.562c-0.245-0.129-0.494-0.251-0.737-0.386
	c-0.447-0.239-0.886-0.488-1.323-0.742c-0.148-0.083-0.298-0.163-0.447-0.249c-0.581-0.342-1.155-0.696-1.723-1.056
	c-0.157-0.1-0.31-0.206-0.465-0.31c-0.412-0.266-0.822-0.536-1.226-0.815c-0.134-0.09-0.263-0.188-0.395-0.277
	c-0.39-0.275-0.776-0.555-1.159-0.838c-0.174-0.129-0.345-0.26-0.514-0.389c-0.351-0.269-0.7-0.539-1.046-0.817
	c-0.156-0.124-0.312-0.249-0.466-0.374c-0.439-0.361-0.874-0.725-1.303-1.098c-0.045-0.039-0.094-0.078-0.143-0.12
	c-0.464-0.407-0.919-0.825-1.37-1.245c-0.131-0.125-0.258-0.246-0.386-0.371c-0.333-0.317-0.662-0.637-0.984-0.965
	c-0.129-0.129-0.259-0.256-0.386-0.385c-0.41-0.42-0.813-0.846-1.208-1.277c-0.02-0.021-0.04-0.041-0.06-0.063
	c-0.417-0.456-0.825-0.923-1.225-1.394c-0.108-0.13-0.213-0.254-0.321-0.381c-0.298-0.359-0.593-0.723-0.881-1.09
	c-0.108-0.131-0.216-0.267-0.323-0.402c-0.347-0.45-0.686-0.899-1.018-1.355c-9.182-12.524-12.481-29.8-5.142-43.987"/>
<path fill="#F6F6F6" d="M31.852,20.416c-6.028,8.674-5.701,20.286-0.999,29.46c0.789,1.538,1.675,3.03,2.666,4.451
	c0.903,1.294,1.904,2.834,3.103,3.875c0.435,0.479,0.889,0.945,1.353,1.404c0.117,0.12,0.237,0.234,0.356,0.352
	c0.45,0.437,0.908,0.867,1.382,1.284c0.02,0.015,0.037,0.034,0.056,0.049c0.005,0.005,0.01,0.007,0.013,0.013
	c0.524,0.459,1.064,0.901,1.614,1.335c0.122,0.093,0.243,0.19,0.366,0.286c0.551,0.422,1.112,0.837,1.688,1.233
	c0.017,0.012,0.031,0.024,0.049,0.037c0.254,0.176,0.513,0.339,0.77,0.508c0.124,0.08,0.241,0.166,0.365,0.241
	c0.411,0.264,0.828,0.521,1.251,0.767c0.06,0.037,0.119,0.068,0.177,0.103c0.365,0.21,0.735,0.417,1.106,0.617
	c0.129,0.073,0.261,0.137,0.393,0.205c0.256,0.135,0.513,0.271,0.774,0.4c0.039,0.02,0.079,0.037,0.117,0.054
	c0.531,0.262,1.067,0.514,1.614,0.752c0.117,0.052,0.238,0.098,0.356,0.146c0.437,0.186,0.879,0.367,1.323,0.537
	c0.188,0.071,0.378,0.14,0.566,0.208c0.403,0.149,0.807,0.286,1.215,0.423c0.184,0.059,0.365,0.119,0.549,0.176
	c0.58,0.18,1.152,0.407,1.756,0.508c31.123,5.156,38.308-18.807,38.308-18.807c-6.477,9.329-19.02,13.779-32.405,10.305
	c-0.595-0.156-1.181-0.327-1.763-0.51c-0.178-0.054-0.353-0.112-0.53-0.171c-0.414-0.134-0.825-0.276-1.233-0.425
	c-0.187-0.068-0.374-0.137-0.557-0.208c-0.447-0.171-0.889-0.349-1.327-0.535c-0.12-0.051-0.24-0.098-0.357-0.151
	c-0.549-0.239-1.09-0.491-1.624-0.754c-0.275-0.134-0.544-0.276-0.814-0.415c-0.156-0.081-0.313-0.161-0.47-0.242
	c-0.347-0.188-0.691-0.383-1.03-0.581c-0.081-0.046-0.165-0.091-0.247-0.139c-0.421-0.247-0.836-0.5-1.248-0.762
	c-0.127-0.081-0.249-0.168-0.376-0.251c-0.271-0.176-0.542-0.354-0.808-0.535c-0.574-0.396-1.132-0.811-1.682-1.23
	c-0.127-0.1-0.254-0.198-0.378-0.298c-5.859-4.626-10.503-10.947-12.711-18.115c-2.314-7.434-1.815-15.779,2.194-22.551"/>
<path fill="#F6F6F6" d="M53.613,12.875c-3.553,5.229-3.902,11.724-1.437,17.5c2.6,6.13,7.928,10.94,14.147,13.22
	c0.256,0.096,0.513,0.181,0.772,0.269c0.114,0.034,0.226,0.074,0.341,0.107c0.366,0.115,0.73,0.249,1.108,0.32
	c17.185,3.32,21.846-8.818,23.087-10.605c-4.083,5.879-10.945,7.29-19.364,5.247c-0.665-0.162-1.396-0.402-2.037-0.629
	c-0.822-0.293-1.632-0.627-2.419-1.005c-1.495-0.718-2.92-1.59-4.241-2.588c-7.534-5.716-12.214-16.621-7.298-25.502"/>
</svg>
