<?xml version="1.0" encoding="utf-8"?>
<!-- Generator: Adobe Illustrator 16.0.0, SVG Export Plug-In . SVG Version: 6.00 Build 0)  -->
<!DOCTYPE svg PUBLIC "-//W3C//DTD SVG 1.1//EN" "http://www.w3.org/Graphics/SVG/1.1/DTD/svg11.dtd">
<svg version="1.1"
	 id="svg2" xmlns:dc="http://purl.org/dc/elements/1.1/" xmlns:cc="http://creativecommons.org/ns#" xmlns:rdf="http://www.w3.org/1999/02/22-rdf-syntax-ns#" xmlns:svg="http://www.w3.org/2000/svg" xmlns:sodipodi="http://sodipodi.sourceforge.net/DTD/sodipodi-0.dtd" xmlns:inkscape="http://www.inkscape.org/namespaces/inkscape" inkscape:version="0.48.1 r9760" sodipodi:docname="twitter_bootstrap_logo.svg"
	 xmlns="http://www.w3.org/2000/svg" xmlns:xlink="http://www.w3.org/1999/xlink" x="0px" y="0px" width="2000px"
	 height="2008.275px" viewBox="0 0 2000 2008.275" enable-background="new 0 0 2000 2008.275" xml:space="preserve">
<sodipodi:namedview  inkscape:cy="407.66551" inkscape:cx="116.80866" inkscape:zoom="0.24896372" fit-margin-left="0" fit-margin-top="0" showgrid="false" id="namedview2996" guidetolerance="10" gridtolerance="10" objecttolerance="10" borderopacity="1" bordercolor="#666666" pagecolor="#ffffff" inkscape:current-layer="svg2" inkscape:window-maximized="0" inkscape:window-y="0" inkscape:window-x="0" inkscape:pageopacity="0" fit-margin-bottom="0" inkscape:window-height="623" fit-margin-right="0" inkscape:window-width="864" inkscape:pageshadow="2">
	</sodipodi:namedview>
<g>
	<path fill="#F6F6F6" d="M1131.29,831.238c26.38-22.219,39.57-54.992,39.571-98.322c-0.001-42.772-13.191-75.27-39.571-97.49
		c-26.381-22.773-65.109-34.161-116.187-34.162H835.772v263.305h179.331C1066.18,864.569,1104.908,853.459,1131.29,831.238z"/>
	<path fill="#F6F6F6" d="M1173.387,1123.706c-32.556-27.219-81.668-40.828-147.338-40.829H835.772v325.798h190.276
		c65.109,0,113.94-13.608,146.496-40.829c33.115-27.219,49.673-68.325,49.674-123.319
		C1222.218,1190.644,1205.94,1150.371,1173.387,1123.706z"/>
	<path fill="#F6F6F6" d="M1676.924,0H323.077C144.646,0,0,144.646,0,323.077v1362.122c0,178.43,144.646,323.076,323.077,323.076
		h1353.847c178.431,0,323.076-144.646,323.076-323.076V323.077C2000,144.646,1855.354,0,1676.924,0z M1423.44,1538.66
		c-81.949,58.883-206.556,88.324-373.818,88.324H511.628V382.954h486.637c174.56,0.001,300.849,26.109,378.869,78.325
		c78.579,52.218,117.87,135.819,117.871,250.806c-0.002,60.551-14.314,112.211-42.939,154.982
		c-28.626,42.219-70.162,73.604-124.605,94.156v0.002c69.599,19.998,123.482,56.938,161.651,110.82
		c38.166,53.884,57.25,119.988,57.251,198.312C1546.361,1390.344,1505.388,1479.779,1423.44,1538.66z"/>
</g>
</svg>
