<?xml version="1.0" encoding="utf-8"?>
<!-- Generator: Adobe Illustrator 16.0.0, SVG Export Plug-In . SVG Version: 6.00 Build 0)  -->
<!DOCTYPE svg PUBLIC "-//W3C//DTD SVG 1.1//EN" "http://www.w3.org/Graphics/SVG/1.1/DTD/svg11.dtd">
<svg version="1.1" id="Layer_1" xmlns:sketch="http://www.bohemiancoding.com/sketch/ns"
	 xmlns="http://www.w3.org/2000/svg" xmlns:xlink="http://www.w3.org/1999/xlink" x="0px" y="0px" width="298px" height="420px"
	 viewBox="0 0 298 420" enable-background="new 0 0 298 420" xml:space="preserve">
<title>Slice 1</title>
<description>Created with Sketch (http://www.bohemiancoding.com/sketch)</description>
<g id="Page_1">
	<g id="Layer_1_1_">
		<path id="Shape" fill="#F6F6F6" d="M233.164,15.681h-24.688L234.15,43.54v13.261h-52.883V41.275h25.67l-25.67-27.86V0.135h51.896
			V15.681L233.164,15.681z M170.786,15.681h-24.688l25.673,27.859v13.261h-52.882V41.275h25.672l-25.672-27.86V0.135h51.897V15.681
			L170.786,15.681z M109.018,16.312h-26.64v24.313h26.64v16.176H63.444V0.135h45.574V16.312L109.018,16.312z"/>
		<path fill="#F6F6F6" d="M0.071,82.67l27.071,303.62l121.472,33.721l121.811-33.77L297.521,82.67H0.071z M241.279,152.116
			l-9.012,101.04l0,0l-0.014,0.148l-0.127,1.428l0,0l-6.337,70.798l-0.56,6.29l-76.21,21.122v0.006l-0.172,0.048L72.57,331.82
			l-5.216-58.467h17.228h20.151l2.652,29.697l41.472,11.199l0.034-0.01v-0.004l41.532-11.211l4.343-48.293h-45.969v0.006h-40.828
			h-0.119l-0.746-8.369l-1.698-18.878l-0.89-9.991h44.281v-0.004h49.275l3.402-38.132h-52.549h-0.129H59.098h-0.119l-0.747-8.37
			l-1.697-18.878l-0.89-9.991h93.152h0.129h93.246L241.279,152.116z"/>
	</g>
</g>
</svg>
