<?xml version="1.0" encoding="utf-8"?>
<!-- Generator: Adobe Illustrator 16.0.0, SVG Export Plug-In . SVG Version: 6.00 Build 0)  -->
<!DOCTYPE svg PUBLIC "-//W3C//DTD SVG 1.1//EN" "http://www.w3.org/Graphics/SVG/1.1/DTD/svg11.dtd">
<svg version="1.1" id="Layer_1" xmlns="http://www.w3.org/2000/svg" xmlns:xlink="http://www.w3.org/1999/xlink" x="0px" y="0px"
	 width="765.142px" height="1080px" viewBox="157.429 420 765.142 1080" enable-background="new 157.429 420 765.142 1080"
	 xml:space="preserve">
<title>HTML5 Logo</title>
<path fill="#F6F6F6" d="M228.618,420h48.678v48.094h44.529V420h48.681v145.64h-48.679v-48.769h-44.529v48.769h-48.678V420H228.618z"
	/>
<path fill="#F6F6F6" d="M434.519,468.296h-42.854V420h134.41v48.296h-42.873v97.344h-48.681v-97.344H434.519z"/>
<path fill="#F6F6F6" d="M547.406,420h50.758l31.223,51.174L660.578,420h50.777v145.64h-48.479v-72.187l-33.49,51.782h-0.837
	l-33.515-51.782v72.187h-47.629V420z"/>
<path fill="#F6F6F6" d="M735.581,420h48.693v97.5h68.455v48.14H735.581V420z"/>
<path fill="#F6F6F6" d="M157.429,632.245l69.632,781.011L539.531,1500l313.333-86.866l69.707-780.889H157.429z M777.328,817.592
	l-4.364,48.56l-1.922,21.531h-0.308H540h-0.331H404.494l8.754,98.088h126.421H540h196.514h25.812l-2.338,25.722l-22.509,252.178
	l-1.44,16.183L540,1334.186v0.016l-0.44,0.122l-196.215-54.471l-13.42-150.4h44.318h51.838l6.819,76.396l106.68,28.806l0.089-0.023
	v-0.008l106.833-28.836l11.119-124.229H540h-0.331H325.646l-23.543-263.965l-2.293-25.698h239.859H540h239.619L777.328,817.592z"/>
</svg>
