<?xml version="1.0" encoding="utf-8"?>
<!-- Generator: Adobe Illustrator 16.0.0, SVG Export Plug-In . SVG Version: 6.00 Build 0)  -->
<!DOCTYPE svg PUBLIC "-//W3C//DTD SVG 1.1//EN" "http://www.w3.org/Graphics/SVG/1.1/DTD/svg11.dtd">
<svg version="1.1"
	 id="svg3059" xmlns:dc="http://purl.org/dc/elements/1.1/" xmlns:cc="http://creativecommons.org/ns#" xmlns:rdf="http://www.w3.org/1999/02/22-rdf-syntax-ns#" xmlns:svg="http://www.w3.org/2000/svg"
	 xmlns="http://www.w3.org/2000/svg" xmlns:xlink="http://www.w3.org/1999/xlink" x="0px" y="0px" width="961.062px" height="429px"
	 viewBox="0 0 961.062 429" enable-background="new 0 0 961.062 429" xml:space="preserve">
<g id="layer1" transform="translate(130.53125,-317.84375)">
	<path id="path21" fill="#F6F6F6" d="M635.038,526.811c35.909,12.563,53.856,34.088,53.856,64.543
		c0,20.047-7.443,35.957-22.296,47.725c-14.838,11.776-36.005,19.084-63.558,19.084c-27.552,0-53.036-7.982-76.51-21.088
		c0.254-6.949,2.091-14.574,5.463-22.852s7.363-14.854,11.937-19.656c21.573,11.211,40.346,16.826,56.281,16.826
		c7.53,0,13.357-1.264,17.413-3.809c4.063-2.536,6.084-5.94,6.084-10.217c0-8.039-6.227-14.052-18.639-18.059l-22.296-8.421
		c-33.729-12.293-50.596-32.323-50.596-60.146c0-20.316,7.085-36.418,21.255-48.33c14.17-11.895,33.269-22.137,57.283-22.137
		c11.88,0,24.96,1.67,39.271,5.01c14.297,3.348,26.042,11.594,35.219,16.125c0.541,7.49-0.963,15.712-4.453,24.665
		c-3.515,8.961-7.823,15.306-12.969,19.052c-22.685-10.162-41.562-15.243-56.686-15.243c-5.415,0-9.494,1.201-12.357,3.618
		c-2.831,2.41-4.223,5.478-4.223,9.224c0,6.417,5.121,11.49,15.386,15.235L635.038,526.811L635.038,526.811z"/>
	<path id="path23" fill="#F6F6F6" d="M455.684,526.811c35.909,12.563,53.848,34.088,53.848,64.543
		c0,20.047-7.442,35.957-22.271,47.725c-14.854,11.776-36.028,19.084-63.572,19.084c-27.528,0-53.045-7.982-76.51-21.088
		c0.254-6.949,2.091-14.574,5.47-22.852c3.372-8.277,7.347-14.854,11.937-19.656c21.597,11.211,40.361,16.826,56.288,16.826
		c7.538,0,13.366-1.264,17.406-3.809c4.048-2.536,6.083-5.94,6.083-10.217c0-8.039-6.226-14.052-18.638-18.059l-22.281-8.421
		c-33.738-12.293-50.61-32.323-50.61-60.146c0-20.316,7.084-36.418,21.27-48.33c14.162-11.895,33.253-22.137,57.267-22.137
		c11.872,0,24.984,1.67,39.266,5.01c14.312,3.348,26.042,11.594,35.225,16.125c0.541,7.49-0.962,15.712-4.452,24.665
		c-3.507,8.961-7.824,15.306-12.961,19.052c-22.693-10.162-41.57-15.243-56.702-15.243c-5.406,0-9.502,1.201-12.349,3.618
		c-2.823,2.41-4.23,5.478-4.23,9.224c0,6.417,5.129,11.49,15.395,15.235L455.684,526.811L455.684,526.811z"/>
	<path id="path25" fill="#F6F6F6" d="M324.889,529.641c0-12.293-1.956-23.656-5.868-34.089c-3.904-10.432-9.51-19.378-16.794-26.868
		c-7.292-7.49-16.126-13.367-26.511-17.645c-10.401-4.271-22.074-10.711-35.027-10.711c-15.387,0-28.816,6.966-40.282,12.316
		c-11.466,5.344-20.913,12.691-28.332,22.05c-7.435,9.366-12.969,20.388-16.611,33.086c-3.642,12.699-5.463,26.534-5.463,41.499
		c0,15.49,1.479,29.818,4.453,42.914c2.966,13.08,8.03,24.436,15.18,34.073c7.156,9.621,16.467,17.104,27.941,22.439
		c11.475,5.344,25.715,9.446,42.716,9.446c31.306,0,57.753-9.064,79.349-24.291c-2.139-15.49-7.657-27.808-16.523-36.896
		c-11.028,4.143-20.786,7.107-29.246,8.93c-8.468,1.799-15.935,2.704-22.383,2.704c-12.906,0-22.193-3.284-27.83-9.915
		c-5.631-6.607-8.72-14.424-9.267-26.296h105.265C323.132,561.145,324.889,545.949,324.889,529.641z M213.988,532.417
		c0.803-13.646,3.292-28.244,7.436-34.255c4.15-6.02,10.504-9.025,19.083-9.025c8.835,0,15.466,3.197,19.879,9.614
		c4.422,6.417,6.631,19.346,6.631,29.237l0.008,4.429H213.988L213.988,532.417z"/>
	<path id="path27" fill="#F6F6F6" d="M799.955,559.094c-11.442,9.995-18.082,24.379-18.082,43.186v70.037
		c0,23.281-7.157,40.989-23.322,53.163c-16.15,12.158-34.979,18.178-56.473,18.757l-12.737-0.096v-34.898
		c11.228-3.276,15.839-7.084,20.308-11.41c8.095-7.315,14.297-19.219,14.297-35.75v-56.543c0.303-19.219,1.781-34.279,8.778-45.157
		c7.022-10.878,20.69-20.388,41.006-28.602c-22.438-10.273-37.508-23.688-45.188-40.235c-4.517-9.828-4.604-23.091-4.604-39.774
		v-51.852c0-17.128-5.606-29.126-12.5-35.973c-4.484-4.469-9.701-8.039-22.113-10.734v-32.761c15.181,0.159,22.845-0.016,31.688,0
		c13.612-0.111,25.016,7.332,34.938,15.084c10.808,8.5,18.487,19.991,22.988,34.454c2.561,8.357,2.926,16.341,2.926,23.942v59.971
		c0,21.182,6.258,36.927,16.953,47.208c6.028,5.964,14.536,11.418,29.144,16.341v27.091
		C815.016,548.121,806.889,552.971,799.955,559.094L799.955,559.094z"/>
	<path id="path29" fill="#F6F6F6" d="M-5.245,320.469v0.047c-4.349-0.024-8.286-0.04-11.434-0.032
		c-13.621-0.119-25.023,7.324-34.938,15.084c-10.822,8.5-20.085,19.593-22.987,34.454c-1.654,8.715-1.304,16.332-1.304,23.942
		v59.971c0,21.175-7.88,36.911-18.567,47.209c-6.02,5.963-18.87,11.409-33.485,16.331v27.09
		c12.953,3.571,25.422,8.405,32.339,14.545c11.45,10.002,19.703,24.396,19.703,43.199v70.037c0,23.268,5.551,40.991,21.7,53.148
		c16.15,12.149,34.971,18.192,56.464,18.78l14.384-0.096v-34.923c-11.22-3.284-17.453-7.094-21.946-11.403
		c-8.087-7.323-12.667-19.219-12.667-35.741V605.56c-0.31-19.233-3.411-34.278-10.416-45.165
		c-7.005-10.861-20.674-20.388-41.014-28.594c22.448-10.281,37.508-23.688,45.189-40.227c4.525-9.836,6.242-23.099,6.242-39.781
		v-51.852c0-17.128,3.975-29.126,10.862-35.98c3.737-3.721,10.384-6.783,19.617-9.263l14.599,0.102c0-12.566,0-20.432,0-34.334
		H-5.243v0.003H-5.245L-5.245,320.469z"/>
	<path id="path31" fill="#F6F6F6" d="M129.353,604.607h-10.933c-11.887,0-16.364-6.25-16.364-18.805V355.058
		c0-13.875-4.007-23.616-9.137-29.229c-5.129-5.598-14.034-5.542-26.717-5.542h-24.69l-2.91-0.056v0.238l-0.024,34.343v242.156
		c0,19.258,4.326,33.349,12.022,42.317c7.705,8.953,20.722,13.423,39.074,13.423c12.691,0,27.131-1.337,43.32-4.017
		c0.811-2.703,1.217-8.492,1.217-17.373C134.21,622.412,132.589,613.529,129.353,604.607L129.353,604.607z"/>
</g>
</svg>
