<?xml version="1.0" encoding="utf-8"?>
<!-- Generator: Adobe Illustrator 16.0.0, SVG Export Plug-In . SVG Version: 6.00 Build 0)  -->
<!DOCTYPE svg PUBLIC "-//W3C//DTD SVG 1.1//EN" "http://www.w3.org/Graphics/SVG/1.1/DTD/svg11.dtd" [
	<!ENTITY ns_flows "http://ns.adobe.com/Flows/1.0/">
	<!ENTITY ns_extend "http://ns.adobe.com/Extensibility/1.0/">
	<!ENTITY ns_ai "http://ns.adobe.com/AdobeIllustrator/10.0/">
	<!ENTITY ns_graphs "http://ns.adobe.com/Graphs/1.0/">
]>
<svg version="1.1" id="Layer_1" xmlns:x="&ns_extend;" xmlns:i="&ns_ai;" xmlns:graph="&ns_graphs;"
	 xmlns="http://www.w3.org/2000/svg" xmlns:xlink="http://www.w3.org/1999/xlink" xmlns:a="http://ns.adobe.com/AdobeSVGViewerExtensions/3.0/"
	 x="0px" y="0px" width="800px" height="600px" viewBox="0 0 800 600" enable-background="new 0 0 800 600" xml:space="preserve">
<g opacity="0.4">
	<path d="M749.363,435.283V33.957c0-12.483-9.604-22.083-22.084-22.083H82.089c-12.481,0-22.083,9.6-22.083,22.083v402.287H9.873
		v25.921c9.604,15.357,39.571,24.002,58.774,24.002h671.111c20.165,0,50.132-9.603,58.774-24.002v-25.921h-49.17V435.283
		L749.363,435.283z M86.89,40.678h635.593v395.566H86.89V40.678z"/>
	<g>
		<g>
			<path d="M505.3,255.483h23.836l6.442,22.189h18.037l-26.197-87.039h-21.903v8.589l-22.977,78.45h16.319L505.3,255.483z
				 M517.11,206.093l8.806,34.143h-17.609L517.11,206.093z"/>
			<rect x="561.346" y="211.463" width="17.609" height="66.209"/>
			<path d="M435.842,141.216v194.508h198.646V141.216H435.842z M619.711,320.589H450.87V156.446h168.841V320.589z"/>
			<ellipse cx="570.258" cy="194.498" rx="9.127" ry="9.019"/>
		</g>
		<g>
			<path d="M173.919,140.335v196.268h199.595V140.335H173.919z M357.641,320.995H189.793V155.943h167.848V320.995z"/>
			<g id="Layer_4_2_">
				<g>
					<path d="M222.153,195.653c0,0,12.619-0.333,23.008-0.333c10.496,0,17.981,2.47,23.007,6.809
						c4.803,4.101,8.041,11.092,8.041,19.051c0,7.959-2.457,14.471-6.926,19.049c-5.807,5.908-12.574,9.407-24.122,9.891
						c-3.19,0.134-6.144,0.165-6.144,0.165v25.871h-16.865L222.153,195.653L222.153,195.653z M239.018,235.952
						c1.831,0.178,2.979,0.092,5.696,0.06c9.047-0.108,14.63-5.61,14.63-13.929c0-7.475-4.604-13.612-13.289-13.93
						c-3.461-0.125-7.037,0-7.037,0V235.952z"/>
					<g>
						<path d="M282.646,258.133c3.399,2.085,11.421,5.209,16.888,5.209c5.587,0,7.894-1.969,7.894-5.038
							c0-3.074-1.823-6.302-8.745-8.635c-12.27-4.178-17.006-9.178-16.883-16.177c0-11.305,9.472-19.781,24.17-19.781
							c6.922,0,12.453,2.263,16.094,4.105v13.567c-2.675-1.476-10.386-4.771-15.486-4.771c-4.497,0-7.047,1.843-7.047,4.913
							c0,2.826,2.311,4.299,9.598,6.881c11.294,3.93,16.031,9.703,16.15,18.548c0,11.18-8.617,20.071-25.748,19.532
							c-5.877-0.186-12.391-2.51-16.885-4.963L282.646,258.133L282.646,258.133z"/>
					</g>
				</g>
			</g>
		</g>
	</g>
</g>
<path fill="#FFFFFF" d="M739.49,425.41V24.083C739.49,11.6,729.886,2,717.406,2H72.215c-12.48,0-22.083,9.6-22.083,22.083V426.37H0
	v25.922c9.603,15.356,39.571,24.002,58.774,24.002h671.111c20.164,0,50.131-9.603,58.774-24.002V426.37h-49.17V425.41L739.49,425.41
	z M77.016,30.805h635.594V426.37H77.016V30.805z"/>
<g>
	<g>
		<path fill="#FFD105" d="M495.426,245.609h23.837l6.441,22.189h18.038l-26.198-87.039h-21.902v8.589l-22.978,78.45h16.32
			L495.426,245.609z M507.236,196.22l8.806,34.142h-17.608L507.236,196.22z"/>
		<rect x="551.473" y="201.59" fill="#FFD105" width="17.608" height="66.209"/>
		<path fill="#FFD105" d="M425.969,131.342V325.85h198.646V131.342H425.969z M609.837,310.716h-168.84V146.573h168.84V310.716z"/>
		<ellipse fill="#FFD105" cx="560.384" cy="184.625" rx="9.128" ry="9.019"/>
	</g>
	<g>
		<path fill="#50A5DC" d="M164.045,130.462V326.73H363.64V130.462H164.045z M347.767,311.121H179.92V146.07h167.847V311.121z"/>
		<g id="Layer_4_1_">
			<g>
				<path fill="#50A5DC" d="M212.279,185.78c0,0,12.62-0.333,23.008-0.333c10.496,0,17.982,2.47,23.008,6.81
					c4.803,4.101,8.041,11.092,8.041,19.051c0,7.958-2.457,14.471-6.926,19.049c-5.808,5.909-12.574,9.407-24.123,9.891
					c-3.19,0.134-6.143,0.165-6.143,0.165v25.871h-16.866L212.279,185.78L212.279,185.78z M229.144,226.079
					c1.832,0.178,2.98,0.092,5.696,0.06c9.047-0.108,14.63-5.609,14.63-13.929c0-7.475-4.603-13.612-13.288-13.93
					c-3.462-0.125-7.038,0-7.038,0V226.079z"/>
				<g>
					<path fill="#50A5DC" d="M272.771,248.259c3.4,2.085,11.422,5.209,16.889,5.209c5.586,0,7.893-1.969,7.893-5.038
						c0-3.074-1.822-6.302-8.745-8.635c-12.269-4.178-17.006-9.178-16.882-16.177c0-11.305,9.471-19.78,24.17-19.78
						c6.922,0,12.453,2.263,16.093,4.104v13.567c-2.675-1.475-10.386-4.771-15.485-4.771c-4.498,0-7.047,1.844-7.047,4.913
						c0,2.826,2.311,4.299,9.598,6.881c11.294,3.93,16.031,9.703,16.15,18.549c0,11.18-8.618,20.071-25.748,19.532
						c-5.878-0.186-12.391-2.51-16.885-4.963V248.259L272.771,248.259z"/>
				</g>
			</g>
		</g>
	</g>
</g>
</svg>
