<?xml version="1.0" encoding="utf-8"?>
<!-- Generator: Adobe Illustrator 16.0.0, SVG Export Plug-In . SVG Version: 6.00 Build 0)  -->
<!DOCTYPE svg PUBLIC "-//W3C//DTD SVG 1.1//EN" "http://www.w3.org/Graphics/SVG/1.1/DTD/svg11.dtd" [
	<!ENTITY ns_flows "http://ns.adobe.com/Flows/1.0/">
	<!ENTITY ns_extend "http://ns.adobe.com/Extensibility/1.0/">
	<!ENTITY ns_ai "http://ns.adobe.com/AdobeIllustrator/10.0/">
	<!ENTITY ns_graphs "http://ns.adobe.com/Graphs/1.0/">
]>
<svg version="1.1" id="Layer_1" xmlns:x="&ns_extend;" xmlns:i="&ns_ai;" xmlns:graph="&ns_graphs;"
	 xmlns="http://www.w3.org/2000/svg" xmlns:xlink="http://www.w3.org/1999/xlink" xmlns:a="http://ns.adobe.com/AdobeSVGViewerExtensions/3.0/"
	 x="0px" y="0px" width="800px" height="600px" viewBox="0 0 800 600" enable-background="new 0 0 800 600" xml:space="preserve">
<g opacity="0.4">
	<path d="M441.029,269.351c0,3.785-3.065,6.855-6.852,6.855c-3.789,0-6.858-3.07-6.858-6.855s3.069-6.855,6.858-6.855
		C437.964,262.496,441.029,265.566,441.029,269.351"/>
	<path d="M443.97,269.351c0,5.409-4.385,9.792-9.793,9.792c-5.41,0-9.797-4.38-9.797-9.792c0-5.413,4.38-9.794,9.797-9.794
		C439.585,259.558,443.97,263.941,443.97,269.351"/>
	<rect x="530.442" y="227.84" width="83.021" height="21.197"/>
	<rect x="530.442" y="279.065" width="173.105" height="24.73"/>
	<rect x="530.442" y="314.393" width="173.105" height="21.197"/>
	<rect x="659.388" y="227.84" width="44.16" height="21.197"/>
	<rect x="530.442" y="441.572" width="173.105" height="21.196"/>
	<rect x="530.442" y="406.245" width="173.105" height="21.196"/>
	<rect x="530.442" y="346.188" width="51.226" height="42.394"/>
	<rect x="592.266" y="346.188" width="49.459" height="42.394"/>
	<rect x="657.622" y="346.188" width="45.926" height="42.394"/>
	<rect x="78.249" y="72.399" width="132.479" height="40.627"/>
	<rect x="78.249" y="176.616" width="383.305" height="38.86"/>
	<rect x="78.249" y="240.205" width="383.305" height="38.86"/>
	<rect x="544.573" y="72.399" width="38.861" height="40.627"/>
	<rect x="78.249" y="303.796" width="113.048" height="37.093"/>
	<rect x="216.026" y="303.796" width="113.048" height="37.093"/>
	<rect x="352.038" y="305.562" width="109.516" height="38.86"/>
	<rect x="727.772" y="399.18" width="51.225" height="8.832"/>
	<rect x="727.772" y="425.675" width="49.459" height="10.599"/>
	<rect x="727.772" y="448.639" width="22.964" height="19.43"/>
	<rect x="727.772" y="478.666" width="52.991" height="14.132"/>
	<path d="M786.588,362H754V186.689c0-2.948-0.887-5.681-2.906-7.523c-1.691-1.876-3.661-3.166-6.396-3.166H660V18.885
		C660,13.321,654.876,9,649.312,9H19.435C13.871,9,9,13.321,9,18.885v423.21C9,447.658,13.871,453,19.435,453h245.672l-8.488,55.166
		L225,520.697V532h219v-11.303l-29.165-10.039L408.347,453H484v66.817c0,1.404,0.539,2.78,1.061,3.97
		c1.529,3.617,5.359,6.213,9.531,6.213h250.105c4.018,0,7.475-2,9.093-6h32.798c5.562,0,9.412-3.92,9.412-9.482V372.161
		C796,366.599,792.15,362,786.588,362z M484,186.689V372H43V42h579v134H494.592C489.03,176,484,181.125,484,186.689z M711,372.161
		V488H513V203h215v159h-6.051C716.386,362,711,366.599,711,372.161z M787,503h-66V389h66V503z"/>
</g>
<path fill="#FFFFFF" d="M432.221,260.542c0,3.785-3.066,6.855-6.852,6.855c-3.789,0-6.858-3.071-6.858-6.855
	s3.069-6.855,6.858-6.855C429.154,253.687,432.221,256.757,432.221,260.542"/>
<path fill="#FFFFFF" d="M435.16,260.542c0,5.41-4.384,9.792-9.793,9.792c-5.41,0-9.796-4.38-9.796-9.792
	c0-5.413,4.38-9.794,9.796-9.794C430.776,250.749,435.16,255.132,435.16,260.542"/>
<rect x="521.634" y="219.031" fill="#50A5DC" width="83.02" height="21.197"/>
<rect x="521.634" y="270.257" fill="#FFD105" width="173.105" height="24.729"/>
<rect x="521.634" y="305.584" fill="#FFD105" width="173.105" height="21.196"/>
<rect x="650.579" y="219.031" fill="#50A5DC" width="44.16" height="21.197"/>
<rect x="521.634" y="432.764" fill="#D7E1F2" width="173.105" height="21.196"/>
<rect x="521.634" y="397.437" fill="#D7E1F2" width="173.105" height="21.196"/>
<rect x="521.634" y="337.379" fill="#F58235" width="51.225" height="42.393"/>
<rect x="583.457" y="337.379" fill="#F58235" width="49.459" height="42.393"/>
<rect x="648.813" y="337.379" fill="#F58235" width="45.926" height="42.393"/>
<rect x="69.439" y="63.59" fill="#50A5DC" width="132.479" height="40.627"/>
<rect x="69.439" y="167.807" fill="#FFD105" width="383.306" height="38.86"/>
<rect x="69.439" y="231.396" fill="#FFD105" width="383.306" height="38.86"/>
<rect x="535.765" y="63.59" fill="#50A5DC" width="38.86" height="40.627"/>
<rect x="69.439" y="294.986" fill="#F58235" width="113.048" height="37.094"/>
<rect x="207.217" y="294.986" fill="#F58235" width="113.048" height="37.094"/>
<rect x="343.229" y="296.752" fill="#F58235" width="109.516" height="38.861"/>
<rect x="718.964" y="390.37" fill="#50A5DC" width="51.225" height="8.833"/>
<rect x="718.964" y="416.866" fill="#FFD105" width="49.459" height="10.598"/>
<rect x="718.964" y="439.829" fill="#F58235" width="22.963" height="19.43"/>
<rect x="718.964" y="469.857" fill="#D7E1F2" width="52.991" height="14.132"/>
<path fill="#FFFFFF" d="M777.779,353H745V177.88c0-2.948-0.792-5.776-2.812-7.619c-1.689-1.876-3.564-3.261-6.301-3.261H651V10.076
	C651,4.513,646.067,0,640.504,0H10.626C5.062,0,0,4.513,0,10.076v423.21C0,438.85,5.062,444,10.626,444h245.671l-8.583,55.263
	L216,511.889V523h219v-11.111l-29.069-10.134L399.537,444H476v67.009c0,1.404,0.133,2.685,0.656,3.874
	c1.529,3.617,4.954,6.117,9.127,6.117h250.104c4.018,0,7.475-2,9.093-6h32.799c5.562,0,9.221-3.729,9.221-9.292V363.352
	C787,357.789,783.342,353,777.779,353z M476,177.88V363H34V33h579v134H485.783C480.222,167,476,172.315,476,177.88z
	 M611.954,506.852c-5.565,0-10.078-4.512-10.078-10.076s4.513-10.073,10.078-10.073c5.562,0,10.073,4.509,10.073,10.073
	S617.517,506.852,611.954,506.852z M703,363.352V479H504V194h215v159h-5.86C707.577,353,703,357.789,703,363.352z M747.109,510.751
	c-3.899,0-7.053-3.161-7.053-7.055c0-3.896,3.153-7.05,7.053-7.05c3.892,0,7.05,3.153,7.05,7.05
	C754.159,507.59,751.001,510.751,747.109,510.751z M778,494h-66V380h66V494z"/>
</svg>
